<svg xmlns="http://www.w3.org/2000/svg" width="722" height="214" viewBox="0 0 722 214" role="img" aria-label="Commits per month"><style>text{font-family:-apple-system, 'Segoe UI', Helvetica, Arial, sans-serif;}</style><text x="16" y="18" font-size="12" fill="#1f2328" text-anchor="start" font-weight="600">COMMITS BY MONTH</text><text x="706" y="18" font-size="10" fill="#59636e" text-anchor="end" font-weight="normal">√ scale, real values labeled</text><line x1="16" y1="174" x2="706" y2="174" stroke="#d1d9e0" stroke-width="1"/><rect x="30.0" y="161" width="18" height="13" rx="2" fill="#1f2328"/><text x="39.0" y="155" font-size="11" fill="#1f2328" text-anchor="middle" font-weight="normal">3</text><text x="39.0" y="190" font-size="10" fill="#59636e" text-anchor="middle" font-weight="normal">Jun</text><text x="39.0" y="204" font-size="10" fill="#59636e" text-anchor="middle" font-weight="normal">2025</text><text x="85.0" y="168" font-size="11" fill="#59636e" text-anchor="middle" font-weight="normal">·</text><text x="85.0" y="190" font-size="10" fill="#59636e" text-anchor="middle" font-weight="normal">Jul</text><text x="131.0" y="168" font-size="11" fill="#59636e" text-anchor="middle" font-weight="normal">·</text><text x="131.0" y="190" font-size="10" fill="#59636e" text-anchor="middle" font-weight="normal">Aug</text><rect x="168.0" y="167" width="18" height="7" rx="2" fill="#1f2328"/><text x="177.0" y="161" font-size="11" fill="#1f2328" text-anchor="middle" font-weight="normal">1</text><text x="177.0" y="190" font-size="10" fill="#59636e" text-anchor="middle" font-weight="normal">Sep</text><text x="223.0" y="168" font-size="11" fill="#59636e" text-anchor="middle" font-weight="normal">·</text><text x="223.0" y="190" font-size="10" fill="#59636e" text-anchor="middle" font-weight="normal">Oct</text><rect x="260.0" y="122" width="18" height="52" rx="2" fill="#1f2328"/><text x="269.0" y="116" font-size="11" fill="#1f2328" text-anchor="middle" font-weight="normal">50</text><text x="269.0" y="190" font-size="10" fill="#59636e" text-anchor="middle" font-weight="normal">Nov</text><rect x="306.0" y="127" width="18" height="47" rx="2" fill="#1f2328"/><text x="315.0" y="121" font-size="11" fill="#1f2328" text-anchor="middle" font-weight="normal">41</text><text x="315.0" y="190" font-size="10" fill="#59636e" text-anchor="middle" font-weight="normal">Dec</text><text x="361.0" y="168" font-size="11" fill="#59636e" text-anchor="middle" font-weight="normal">·</text><text x="361.0" y="190" font-size="10" fill="#59636e" text-anchor="middle" font-weight="normal">Jan</text><text x="361.0" y="204" font-size="10" fill="#59636e" text-anchor="middle" font-weight="normal">2026</text><text x="407.0" y="168" font-size="11" fill="#59636e" text-anchor="middle" font-weight="normal">·</text><text x="407.0" y="190" font-size="10" fill="#59636e" text-anchor="middle" font-weight="normal">Feb</text><rect x="444.0" y="167" width="18" height="7" rx="2" fill="#1f2328"/><text x="453.0" y="161" font-size="11" fill="#1f2328" text-anchor="middle" font-weight="normal">1</text><text x="453.0" y="190" font-size="10" fill="#59636e" text-anchor="middle" font-weight="normal">Mar</text><text x="499.0" y="168" font-size="11" fill="#59636e" text-anchor="middle" font-weight="normal">·</text><text x="499.0" y="190" font-size="10" fill="#59636e" text-anchor="middle" font-weight="normal">Apr</text><rect x="536.0" y="149" width="18" height="25" rx="2" fill="#1f2328"/><text x="545.0" y="143" font-size="11" fill="#1f2328" text-anchor="middle" font-weight="normal">12</text><text x="545.0" y="190" font-size="10" fill="#59636e" text-anchor="middle" font-weight="normal">May</text><rect x="582.0" y="140" width="18" height="34" rx="2" fill="#1f2328"/><text x="591.0" y="134" font-size="11" fill="#1f2328" text-anchor="middle" font-weight="normal">22</text><text x="591.0" y="190" font-size="10" fill="#59636e" text-anchor="middle" font-weight="normal">Jun</text><rect x="628.0" y="44" width="18" height="130" rx="2" fill="#1f2328"/><text x="637.0" y="38" font-size="11" fill="#1f2328" text-anchor="middle" font-weight="normal">317</text><text x="637.0" y="190" font-size="10" fill="#59636e" text-anchor="middle" font-weight="normal">Jul</text><rect x="674.0" y="115" width="18" height="59" rx="2" fill="#1f2328"/><text x="683.0" y="109" font-size="11" fill="#1f2328" text-anchor="middle" font-weight="normal">65</text><text x="683.0" y="190" font-size="10" fill="#59636e" text-anchor="middle" font-weight="normal">Aug</text></svg>