<svg xmlns="http://www.w3.org/2000/svg" width="420" height="218" viewBox="0 0 420 218" role="img" aria-label="Language share"><style>text{font-family:-apple-system, 'Segoe UI', Helvetica, Arial, sans-serif;}</style><text x="16" y="22" font-size="12" fill="#1f2328" text-anchor="start" font-weight="600">LANGUAGES · ALL REPOS</text><text x="16" y="49" font-size="11" fill="#59636e" text-anchor="start" font-weight="normal">HTML</text><rect x="126" y="40" width="222" height="12" rx="2" fill="#1f2328"/><text x="356" y="49" font-size="11" fill="#1f2328" text-anchor="start" font-weight="normal">67.2%</text><text x="16" y="71" font-size="11" fill="#59636e" text-anchor="start" font-weight="normal">JavaScript</text><rect x="126" y="62" width="69" height="12" rx="2" fill="#1f2328"/><text x="203" y="71" font-size="11" fill="#1f2328" text-anchor="start" font-weight="normal">20.8%</text><text x="16" y="93" font-size="11" fill="#59636e" text-anchor="start" font-weight="normal">TypeScript</text><rect x="126" y="84" width="14" height="12" rx="2" fill="#1f2328"/><text x="148" y="93" font-size="11" fill="#1f2328" text-anchor="start" font-weight="normal">4.2%</text><text x="16" y="115" font-size="11" fill="#59636e" text-anchor="start" font-weight="normal">Python</text><rect x="126" y="106" width="9" height="12" rx="2" fill="#1f2328"/><text x="143" y="115" font-size="11" fill="#1f2328" text-anchor="start" font-weight="normal">2.9%</text><text x="16" y="137" font-size="11" fill="#59636e" text-anchor="start" font-weight="normal">CSS</text><rect x="126" y="128" width="9" height="12" rx="2" fill="#1f2328"/><text x="143" y="137" font-size="11" fill="#1f2328" text-anchor="start" font-weight="normal">2.7%</text><text x="16" y="159" font-size="11" fill="#59636e" text-anchor="start" font-weight="normal">Svelte</text><rect x="126" y="150" width="3" height="12" rx="2" fill="#1f2328"/><text x="137" y="159" font-size="11" fill="#1f2328" text-anchor="start" font-weight="normal">1.0%</text><text x="16" y="181" font-size="11" fill="#59636e" text-anchor="start" font-weight="normal">PHP</text><rect x="126" y="172" width="3" height="12" rx="2" fill="#1f2328"/><text x="137" y="181" font-size="11" fill="#1f2328" text-anchor="start" font-weight="normal">0.9%</text><text x="16" y="203" font-size="11" fill="#59636e" text-anchor="start" font-weight="normal">Shell</text><rect x="126" y="194" width="2" height="12" rx="2" fill="#1f2328"/><text x="136" y="203" font-size="11" fill="#1f2328" text-anchor="start" font-weight="normal">0.3%</text></svg>